# xmcd
#
# Track frame offsets: 
#        150
#        9233
#        24030
#        35656
#        47381
#        68255
#        83221
#        97628
#        109948
#        126974
#        138347
#        153937
#        168322
#        178480
#
# Disc length: 2572 seconds
#
# Revision: 0
# Processed by: cddbd v1.5.2PL0 Copyright (c) Steve Scherf et al.
# Submitted via: ExactAudioCopy v0.95a5
#
DISCID=9e0a0a0e
DTITLE=Copper River Band - Copper River Band
DYEAR=2002
DGENRE=Bluegrass
TTITLE0=East Virginia Blues (A.P. Carter)
TTITLE1=Who's That Knocking at my Door (Pat Enright)
TTITLE2=Many A Mile (Patrick Sky)
TTITLE3=Black Diamond (Don Stover)
TTITLE4=Aragon Mill (Si Kahn)
TTITLE5=Wild Bill Jones (Trad.)
TTITLE6=Don't Lie to Me (Red Allen)
TTITLE7=Say, Won't You Be Mine (Carter Stanley)
TTITLE8=Little White Church (Eugene Wellman)
TTITLE9=Suzanne (Randy Newman)
TTITLE10=Alley Cat (John Thompson)
TTITLE11=No Mother or Dad (Lester Flatt and Curley Sechler)
TTITLE12=This Weary Heart You Stole Away (Carter Stanley)
TTITLE13=Tennessee Waltz (Pee Wee King and Redd Stewart)
EXTD=
EXTT0=
EXTT1=
EXTT2=
EXTT3=
EXTT4=
EXTT5=
EXTT6=
EXTT7=
EXTT8=
EXTT9=
EXTT10=
EXTT11=
EXTT12=
EXTT13=
PLAYORDER=
